<?xml version="1.0" encoding="utf-8"?>
<svg viewBox="0 0 16 16.352" fill="none" xmlns="http://www.w3.org/2000/svg">
  <g transform="translate(0 0)">
    <rect width="16" height="16" />
    <path d="M13 7L13 8L3 8L3 7L13 7ZM6 11L6 12L10 12L10 11L6 11ZM4 2L12 2L12 0L13 0L13 2L15.5 2C15.7764 2 16 2.22388 16 2.5L16 15.5C16 15.7761 15.7764 16 15.5 16L0.5 16C0.223633 16 0 15.7761 0 15.5L0 2.5C0 2.22388 0.223633 2 0.5 2L3 2L3 0L4 0L4 2ZM12 5.35156L13 5.35156L13 3.35156L14.75 3.35156C14.8877 3.35156 15 3.46338 15 3.60156L15 15.1016C15 15.2397 14.8877 15.3516 14.75 15.3516L1.25003 15.3516C1.11234 15.3516 1.00003 15.2397 1.00003 15.1016L1.00003 3.60156C1.00003 3.46338 1.11234 3.35156 1.25003 3.35156L3.00003 3.35156L3.00003 5.35156L4.00003 5.35156L4.00003 3.35156L12 3.35156L12 5.35156Z"  />
  </g>
</svg>