<?xml version="1.0" encoding="utf-8"?>
<svg viewBox="0 0 14 14" fill="none" xmlns="http://www.w3.org/2000/svg">
  <path d="M2.96154 0L2.96154 0.875L0.925481 0.875C0.823255 0.875 0.740385 0.972938 0.740385 1.09375L0.740385 3.5L0 3.5L0 0.4375C0 0.195876 0.165741 0 0.370192 0L2.96154 0ZM5.92308 0.875L5.92308 0L8.51442 0C8.71887 0 8.88462 0.195875 8.88462 0.4375L8.88462 3.5L8.14423 3.5L8.14423 1.09375C8.14423 0.972938 8.06136 0.875 7.95914 0.875L5.92308 0.875ZM0 10.0625C0 10.3041 0.165741 10.5 0.370192 10.5L2.96154 10.5L2.96154 9.625L0.925481 9.625C0.823255 9.625 0.740385 9.52706 0.740385 9.40625L0.740385 7L0 7L0 10.0625ZM8.60235 14L10.4787 10.4922L14 9.33267L6.59617 4.375L8.60235 14Z" fill="#5E5D67" />
</svg>